<?xml version="1.0" encoding="UTF-8"?>
<svg id="Layer_2" data-name="Layer 2" xmlns="http://www.w3.org/2000/svg" viewBox="0 0 184.25 159.71">
  <defs>
    <style>
      .cls-1 {
        fill: none;
        stroke: #d62ffe;
        stroke-linecap: round;
        stroke-linejoin: round;
        stroke-width: 6.94px;
      }
    </style>
  </defs>
  <g id="Objects_Large">
    <g>
      <g>
        <path class="cls-1" d="M29.65,131.52c3.65,3.9,1.2,12.14-5.48,18.41-6.68,6.27-15.06,8.19-18.72,4.29-3.65-3.9-1.2-12.14,5.48-18.41,6.68-6.27,15.06-8.19,18.72-4.29Z"/>
        <polyline class="cls-1" points="29.65 131.52 3.47 68.68 55.16 23.06 81.34 85.9"/>
        <path class="cls-1" d="M81.34,85.9c3.65,3.9,1.2,12.14-5.48,18.41-6.68,6.27-15.06,8.19-18.72,4.29-3.65-3.9-1.2-12.14,5.48-18.41,6.68-6.27,15.06-8.19,18.72-4.29Z"/>
        <line class="cls-1" x1="10.7" y1="86.04" x2="62.39" y2="40.42"/>
      </g>
      <g>
        <path class="cls-1" d="M127.4,111.93c3.65,3.9,1.2,12.14-5.48,18.41-6.68,6.27-15.06,8.19-18.72,4.29-3.65-3.9-1.2-12.14,5.48-18.4,6.68-6.27,15.06-8.19,18.72-4.29Z"/>
        <polyline class="cls-1" points="127.4 111.93 101.22 49.09 152.91 3.47 179.09 66.31"/>
        <path class="cls-1" d="M179.09,66.31c3.65,3.9,1.2,12.14-5.48,18.41-6.68,6.27-15.06,8.19-18.72,4.29-3.65-3.9-1.2-12.14,5.48-18.41,6.68-6.27,15.06-8.19,18.72-4.29Z"/>
        <line class="cls-1" x1="108.45" y1="66.45" x2="160.15" y2="20.83"/>
      </g>
    </g>
  </g>
</svg>