<?xml version="1.0" encoding="UTF-8"?>
<svg id="Layer_2" data-name="Layer 2" xmlns="http://www.w3.org/2000/svg" viewBox="0 0 710.46 548.76">
  <defs>
    <style>
      .cls-1 {
        stroke-width: 9px;
      }

      .cls-1, .cls-2, .cls-3, .cls-4, .cls-5 {
        fill: none;
        stroke-linecap: round;
        stroke-linejoin: round;
      }

      .cls-1, .cls-4 {
        stroke: #8fdeff;
      }

      .cls-2 {
        stroke: #3c6df7;
      }

      .cls-2, .cls-3, .cls-4, .cls-5 {
        stroke-width: 9.8px;
      }

      .cls-3 {
        stroke: #d62ffe;
      }

      .cls-5 {
        stroke: #6d13fd;
      }
    </style>
  </defs>
  <g id="Objects_Large">
    <g>
      <path class="cls-5" d="M642.21,101.57l62.33,266.61c4.84,20.71-8.02,41.43-28.73,46.27l-281.57,65.83"/>
      <line class="cls-5" x1="230.33" y1="115.55" x2="517.73" y2="48.36"/>
      <path class="cls-5" d="M101.97,542.12c-11.75-4.32-21.17-14.29-24.23-27.39L5.92,207.57c-4.84-20.71,8.02-41.43,28.73-46.27l47.46-11.1"/>
      <circle class="cls-3" cx="500.84" cy="253.83" r="43.61"/>
      <circle class="cls-3" cx="500.84" cy="254.07" r="149.32"/>
      <g id="StereoGrill">
        <rect class="cls-1" x="108.76" y="383.64" width="245.46" height="134.45" transform="translate(-96.56 64.54) rotate(-13.16)"/>
        <line class="cls-1" x1="137.59" y1="405.62" x2="166.93" y2="531.11"/>
        <line class="cls-1" x1="177.24" y1="397.37" x2="206.58" y2="522.86"/>
        <line class="cls-1" x1="216.67" y1="388.12" x2="246.01" y2="513.6"/>
        <line class="cls-1" x1="256.11" y1="379.07" x2="285.45" y2="504.56"/>
        <line class="cls-1" x1="295.53" y1="369.85" x2="324.87" y2="495.34"/>
      </g>
      <rect class="cls-4" x="52.19" y="177.48" width="242.91" height="53.4" transform="translate(-41.92 44.89) rotate(-13.16)"/>
      <rect class="cls-4" x="549.27" y="14.8" width="94.95" height="68.77" transform="translate(4.47 137.15) rotate(-13.16)"/>
      <g>
        <circle class="cls-5" cx="94.86" cy="296.99" r="15.74" transform="translate(-215.09 263.33) rotate(-66.09)"/>
        <circle class="cls-2" cx="158.38" cy="282.14" r="15.74" transform="translate(-164.94 269.75) rotate(-58.5)"/>
        <circle class="cls-5" cx="285.42" cy="252.44" r="15.74" transform="translate(-95.56 245.74) rotate(-40.48)"/>
        <circle class="cls-2" cx="108.3" cy="354.48" r="15.74" transform="translate(-27.21 9.49) rotate(-4.46)"/>
        <circle class="cls-3" cx="221.9" cy="267.29" r="16.61"/>
        <circle class="cls-3" cx="171.82" cy="339.63" r="16.61"/>
        <circle class="cls-5" cx="235.34" cy="324.78" r="15.74" transform="translate(-164.49 356.51) rotate(-58.61)"/>
        <circle class="cls-2" cx="298.86" cy="309.93" r="15.74" transform="translate(-130.62 340.36) rotate(-50.09)"/>
      </g>
      <rect class="cls-2" x="107.51" y="107.93" width="27.9" height="32.64" transform="translate(-25.1 30.91) rotate(-13.16)"/>
      <rect class="cls-2" x="171.03" y="93.08" width="27.9" height="32.64" transform="translate(-20.05 44.99) rotate(-13.16)"/>
    </g>
  </g>
</svg>