<?xml version="1.0" encoding="UTF-8"?>
<svg id="Layer_1" data-name="Layer 1" xmlns="http://www.w3.org/2000/svg" xmlns:xlink="http://www.w3.org/1999/xlink" viewBox="0 0 798.35 871.3">
  <defs>
    <style>
      .cls-1 {
        fill: url(#linear-gradient-2);
      }

      .cls-2 {
        fill: #fff;
      }

      .cls-3 {
        fill: url(#linear-gradient-3);
      }

      .cls-4 {
        fill: url(#linear-gradient);
      }

      .cls-5 {
        fill: url(#linear-gradient-4);
      }
    </style>
    <linearGradient id="linear-gradient" x1="26.82" y1="311.35" x2="787.53" y2="311.35" gradientUnits="userSpaceOnUse">
      <stop offset=".07" stop-color="#ff07eb"/>
      <stop offset="1" stop-color="#00b2f4"/>
    </linearGradient>
    <linearGradient id="linear-gradient-2" x1="26.82" y1="482.59" x2="787.53" y2="482.59" xlink:href="#linear-gradient"/>
    <linearGradient id="linear-gradient-3" x1="26.82" y1="293.76" x2="787.53" y2="293.76" xlink:href="#linear-gradient"/>
    <linearGradient id="linear-gradient-4" x1="26.82" y1="524.33" x2="787.53" y2="524.33" xlink:href="#linear-gradient"/>
  </defs>
  <g>
    <g>
      <rect class="cls-4" x="35.7" y="206.5" width="83.88" height="209.7" rx="41.94" ry="41.94"/>
      <path class="cls-2" d="M74.75,426.6c-27.95-1.5-49.54-25.24-49.54-53.23v-124.06c0-27.99,21.59-51.72,49.54-53.23,30.21-1.63,55.31,22.48,55.31,52.35v125.82c0,29.86-25.1,53.97-55.31,52.35Zm.49-209.53c-16.52,1.23-29.06,15.47-29.06,32.03v124.48c0,16.57,12.54,30.8,29.06,32.03,18.42,1.37,33.85-13.23,33.85-31.37v-125.82c0-18.14-15.43-32.74-33.85-31.37Z"/>
    </g>
    <path class="cls-2" d="M61.71,457.67v263.11c0,10.3,8.66,18.81,18.92,17.97,8.97-.74,16.03-8.25,16.03-17.42V457.67c0-9.51-7.78-17.04-17.29-17.01-.06,0-.12,0-.18,0s-.12,0-.18,0c-9.51-.03-17.29,7.5-17.29,17.01Z"/>
    <path class="cls-2" d="M96.66,165.02v-51.43c0-10.3-8.66-18.81-18.92-17.97-8.97,.74-16.03,8.25-16.03,17.42v51.98c0,9.51,7.78,17.04,17.29,17.01,.06,0,.12,0,.18,0s.12,0,.18,0c9.51,.03,17.29-7.5,17.29-17.01Z"/>
  </g>
  <g>
    <g>
      <path class="cls-1" d="M292,587.44h0c-23.16,0-41.94-18.78-41.94-41.94v-125.82c0-23.16,18.78-41.94,41.94-41.94h0c23.16,0,41.94,18.78,41.94,41.94v125.82c0,23.16-18.78,41.94-41.94,41.94Z"/>
      <path class="cls-2" d="M292,597.92c-28.91,0-52.42-23.52-52.42-52.42v-125.82c0-28.91,23.52-52.42,52.42-52.42s52.42,23.52,52.42,52.42v125.82c0,28.91-23.52,52.42-52.42,52.42Zm0-209.7c-17.35,0-31.45,14.11-31.45,31.45v125.82c0,17.35,14.11,31.45,31.45,31.45s31.45-14.11,31.45-31.45v-125.82c0-17.34-14.11-31.45-31.45-31.45Z"/>
    </g>
    <path class="cls-2" d="M276.06,628.89v91.9c0,9.44,7.25,17.59,16.68,18.01,10.01,.44,18.27-7.54,18.27-17.46v-92.46c0-9.5-7.79-17.01-17.29-16.98-.06,0-.12,0-.18,0s-.12,0-.18,0c-9.5-.03-17.3,7.48-17.3,16.98Z"/>
    <path class="cls-2" d="M311.01,336.3V113.53c0-9.41-7.23-17.51-16.63-17.95-10.04-.47-18.32,7.52-18.32,17.45v223.26c0,9.5,7.79,17.01,17.3,16.98,.06,0,.12,0,.18,0s.12,0,.18,0c9.5,.03,17.29-7.48,17.29-16.98Z"/>
  </g>
  <g>
    <g>
      <path class="cls-3" d="M506.36,398.61h0c-23.16,0-41.94-18.78-41.94-41.94v-125.82c0-23.16,18.78-41.94,41.94-41.94h0c23.16,0,41.94,18.78,41.94,41.94v125.82c0,23.16-18.78,41.94-41.94,41.94Z"/>
      <path class="cls-2" d="M506.36,409.09c-28.91,0-52.42-23.52-52.42-52.43v-125.82c0-28.91,23.52-52.42,52.42-52.42s52.42,23.52,52.42,52.42v125.82c0,28.91-23.52,52.43-52.42,52.43Zm0-209.7c-17.35,0-31.45,14.11-31.45,31.45v125.82c0,17.35,14.11,31.46,31.45,31.46s31.45-14.11,31.45-31.46v-125.82c0-17.35-14.11-31.45-31.45-31.45Z"/>
    </g>
    <path class="cls-2" d="M490.42,440.05v280.79c0,9.41,7.23,17.51,16.63,17.95,10.04,.47,18.32-7.52,18.32-17.46V440.06c0-9.5-7.79-17.01-17.3-16.98-.06,0-.12,0-.18,0s-.12,0-.18,0c-9.5-.03-17.29,7.48-17.29,16.98Z"/>
    <path class="cls-2" d="M525.37,147.46v-33.93c0-9.41-7.23-17.51-16.63-17.95-10.04-.47-18.32,7.52-18.32,17.45v34.43c0,9.5,7.79,17.01,17.29,16.98,.06,0,.12,0,.18,0s.12,0,.18,0c9.5,.03,17.3-7.48,17.3-16.98Z"/>
  </g>
  <g>
    <g>
      <rect class="cls-5" x="678.77" y="419.48" width="83.88" height="209.7" rx="41.94" ry="41.94"/>
      <path class="cls-2" d="M720.71,639.66c-28.91,0-52.42-23.52-52.42-52.42v-125.82c0-28.91,23.52-52.42,52.42-52.42s52.43,23.52,52.43,52.42v125.82c0,28.91-23.52,52.42-52.43,52.42Zm0-209.7c-17.34,0-31.45,14.11-31.45,31.45v125.82c0,17.35,14.11,31.45,31.45,31.45s31.46-14.11,31.46-31.45v-125.82c0-17.35-14.11-31.45-31.46-31.45Z"/>
    </g>
    <path class="cls-2" d="M704.78,670.62v50.22c0,9.41,7.23,17.51,16.63,17.95,10.04,.47,18.32-7.52,18.32-17.46v-50.71c0-9.5-7.79-17.01-17.29-16.98-.06,0-.12,0-.18,0s-.12,0-.18,0c-9.5-.03-17.29,7.48-17.29,16.98Z"/>
    <path class="cls-2" d="M739.73,378.03V113.53c0-9.41-7.23-17.51-16.63-17.95-10.04-.47-18.32,7.52-18.32,17.45V378.03c0,9.5,7.79,17.01,17.29,16.98,.06,0,.12,0,.18,0s.12,0,.18,0c9.5,.03,17.29-7.48,17.29-16.98Z"/>
  </g>
  <path class="cls-2" d="M184.82,612.12h0c-10.13,0-18.34-8.21-18.34-18.34V282.72c0-10.13,8.21-18.34,18.34-18.34h0c10.13,0,18.34,8.21,18.34,18.34v311.06c0,10.13-8.21,18.34-18.34,18.34Z"/>
  <path class="cls-2" d="M399.18,612.12h0c-10.13,0-18.34-8.21-18.34-18.34V282.72c0-10.13,8.21-18.34,18.34-18.34h0c10.13,0,18.34,8.21,18.34,18.34v311.06c0,10.13-8.21,18.34-18.34,18.34Z"/>
  <path class="cls-2" d="M613.53,612.12h0c-10.13,0-18.34-8.21-18.34-18.34V282.72c0-10.13,8.21-18.34,18.34-18.34h0c10.13,0,18.34,8.21,18.34,18.34v311.06c0,10.13-8.21,18.34-18.34,18.34Z"/>
</svg>